<svg xmlns="http://www.w3.org/2000/svg" viewBox="0 0 64 64" role="img" aria-label="Spring Security">
  <path
    fill="#6DB33F"
    d="M32 4 10 13v16c0 14.6 8.8 27.8 22 31 13.2-3.2 22-16.4 22-31V13L32 4Z"
  />
  <path
    fill="#fff"
    d="M42.7 18.7c-10.9.6-18.9 4.2-23.9 10.8 5-2.2 9.8-3 14.3-2.5-6.1 2.7-10.3 7.3-12.5 13.9 4.3-5.2 9.5-7.8 15.5-7.8h1.1c-2.7 2.6-5.9 4.5-9.5 5.7 9.9.7 17.8-6.3 20.5-18.9.2-.9-.5-1.7-1.4-1.6-1.4.2-2.7.3-4.1.4Z"
  />
  <path
    fill="#fff"
    fill-opacity=".92"
    d="M18.5 30.4c-.6 0-1-.5-.8-1 1.3-4.4 4-8.1 8-11.1.5-.4 1.2 0 1.2.6v3.5c0 .3-.1.5-.4.7-2.6 1.7-4.8 4-6.6 6.8-.2.3-.7.5-1.4.5Z"
  />
</svg>
