<svg viewBox="0 0 24 24" fill="none" xmlns="http://www.w3.org/2000/svg">
  <circle cx="12" cy="12" r="10" fill="#00B5D8"/>
  <path
    d="M7 7.75h2v5.45c0 1.36.88 2.16 2.15 2.16 1.25 0 2.11-.8 2.11-2.16V7.75h2v5.48c0 2.5-1.75 3.89-4.13 3.89C8.76 17.12 7 15.73 7 13.23V7.75Z"
    fill="#FFFFFF"
  />
  <path
    d="M15.55 10.08h1.7v.81c.42-.57 1.07-.94 1.93-.94 1.63 0 2.82 1.37 2.82 3.22 0 1.86-1.19 3.23-2.82 3.23-.78 0-1.42-.31-1.86-.83V19h-1.77v-8.92Zm3.19 4.76c.88 0 1.49-.67 1.49-1.67 0-.99-.61-1.66-1.49-1.66-.86 0-1.48.67-1.48 1.66 0 1 .62 1.67 1.48 1.67Z"
    fill="#FFFFFF"
  />
</svg>
